999
Generated by Autodesk CAM - http://cam.autodesk.com
0
SECTION
2
HEADER
9
$ACADVER
1
AC1006
9
$ANGBASE
50
0
9
$ANGDIR
70
0
0
ENDSEC
0
SECTION
2
BLOCKS
0
ENDSEC
9
$EXTMIN
10
-246.288
20
-238.977
30
0
9
$EXTMAX
10
246.288
20
238.977
30
15
0
SECTION
2
ENTITIES
0
LINE
8
1
62
1
10
-206.972
20
-65.727
30
0
11
-216.932
21
-57.197
31
0
0
ARC
8
1
62
1
10
-216.879
20
-57.134
30
0
40
0.082
50
157.8566
51
-130.579902
0
LINE
8
1
62
1
10
-216.955
20
-57.103
30
0
11
-209.416
21
-38.578
31
0
0
ARC
8
1
62
1
10
-209.34
20
-38.609
30
0
40
0.082
50
49.428196
51
157.8566
0
LINE
8
1
62
1
10
-209.287
20
-38.547
30
0
11
-201.281
21
-45.404
31
0
0
ARC
8
1
62
1
10
-201.334
20
-45.466
30
0
40
0.082
50
-22.149888
51
49.418364
0
LINE
8
1
62
1
10
-201.258
20
-45.497
30
0
11
-204.997
21
-54.683
31
0
0
LINE
8
1
62
1
10
-204.997
20
-54.683
30
0
11
-201.444
21
-56.129
31
0
0
LINE
8
1
62
1
10
-201.444
20
-56.129
30
0
11
-198.208
21
-48.178
31
0
0
ARC
8
1
62
1
10
-198.132
20
-48.209
30
0
40
0.082
50
49.418364
51
157.85505
0
LINE
8
1
62
1
10
-198.079
20
-48.146
30
0
11
-89.219
21
-141.377
31
0
0
LINE
8
1
62
1
10
-89.219
20
-141.377
30
0
11
164.926
21
-142.892
31
0
0
ARC
8
1
62
1
10
164.926
20
-142.974
30
0
40
0.082
50
-22.135994
51
89.658831
0
LINE
8
1
62
1
10
165.002
20
-143.005
30
0
11
161.867
21
-150.71
31
0
0
LINE
8
1
62
1
10
161.867
20
-150.71
30
0
11
165.42
21
-152.155
31
0
0
LINE
8
1
62
1
10
165.42
20
-152.155
30
0
11
169.158
21
-142.969
31
0
0
ARC
8
1
62
1
10
169.234
20
-143
30
0
40
0.082
50
89.658831
51
157.850112
0
LINE
8
1
62
1
10
169.234
20
-142.918
30
0
11
180.004
21
-142.982
31
0
0
ARC
8
1
62
1
10
180.004
20
-143.064
30
0
40
0.082
50
-22.145869
51
89.658831
0
LINE
8
1
62
1
10
180.08
20
-143.095
30
0
11
172.542
21
-161.62
31
0
0
ARC
8
1
62
1
10
172.466
20
-161.589
30
0
40
0.082
50
-90.341169
51
-22.140012
0
LINE
8
1
62
1
10
172.466
20
-161.671
30
0
11
-96.788
21
-160.066
31
0
0
ARC
8
1
62
1
10
-96.788
20
-159.984
30
0
40
0.082
50
-130.578168
51
-90.341169
0
LINE
8
1
62
1
10
-96.841
20
-160.046
30
0
11
-206.972
21
-65.727
31
0
0
LINE
8
1
62
1
10
-191.71
20
-27.587
30
0
11
-202.064
21
-18.719
31
0
0
ARC
8
1
62
1
10
-202.011
20
-18.657
30
0
40
0.082
50
157.853815
51
-130.579902
0
LINE
8
1
62
1
10
-202.087
20
-18.626
30
0
11
-194.548
21
-0.101
31
0
0
ARC
8
1
62
1
10
-194.472
20
-0.132
30
0
40
0.082
50
49.419235
51
157.857222
0
LINE
8
1
62
1
10
-194.419
20
-0.07
30
0
11
-186.413
21
-6.926
31
0
0
ARC
8
1
62
1
10
-186.466
20
-6.989
30
0
40
0.082
50
-22.140314
51
49.419231
0
LINE
8
1
62
1
10
-186.39
20
-7.019
30
0
11
-190.128
21
-16.206
31
0
0
LINE
8
1
62
1
10
-190.128
20
-16.206
30
0
11
-186.575
21
-17.652
31
0
0
LINE
8
1
62
1
10
-186.575
20
-17.652
30
0
11
-183.34
21
-9.7
31
0
0
ARC
8
1
62
1
10
-183.264
20
-9.731
30
0
40
0.082
50
49.419231
51
157.858136
0
LINE
8
1
62
1
10
-183.211
20
-9.669
30
0
11
-74.351
21
-102.9
31
0
0
LINE
8
1
62
1
10
-74.351
20
-102.9
30
0
11
179.794
21
-104.415
31
0
0
ARC
8
1
62
1
10
179.794
20
-104.497
30
0
40
0.082
50
-22.14495
51
89.658831
0
LINE
8
1
62
1
10
179.87
20
-104.528
30
0
11
176.735
21
-112.232
31
0
0
LINE
8
1
62
1
10
176.735
20
-112.232
30
0
11
180.288
21
-113.678
31
0
0
LINE
8
1
62
1
10
180.288
20
-113.678
30
0
11
184.026
21
-104.491
31
0
0
ARC
8
1
62
1
10
184.102
20
-104.522
30
0
40
0.082
50
89.658831
51
157.859068
0
LINE
8
1
62
1
10
184.102
20
-104.44
30
0
11
194.872
21
-104.504
31
0
0
ARC
8
1
62
1
10
194.872
20
-104.586
30
0
40
0.082
50
-22.140932
51
89.658831
0
LINE
8
1
62
1
10
194.948
20
-104.617
30
0
11
187.41
21
-123.142
31
0
0
ARC
8
1
62
1
10
187.334
20
-123.111
30
0
40
0.082
50
-90.341169
51
-22.140932
0
LINE
8
1
62
1
10
187.334
20
-123.193
30
0
11
-81.92
21
-121.589
31
0
0
ARC
8
1
62
1
10
-81.919
20
-121.507
30
0
40
0.082
50
-130.577587
51
-90.341201
0
LINE
8
1
62
1
10
-81.973
20
-121.569
30
0
11
-190.465
21
-28.653
31
0
0
LINE
8
1
62
1
10
-190.465
20
-28.653
30
0
11
-191.71
21
-27.587
31
0
0
LINE
8
1
62
1
10
-184.001
20
-8.583
30
0
11
-194.573
21
0.472
31
0
0
ARC
8
1
62
1
10
-194.52
20
0.534
30
0
40
0.082
50
157.855513
51
-130.572576
0
LINE
8
1
62
1
10
-194.596
20
0.565
30
0
11
-187.058
21
19.09
31
0
0
ARC
8
1
62
1
10
-186.982
20
19.059
30
0
40
0.082
50
49.427329
51
157.859068
0
LINE
8
1
62
1
10
-186.929
20
19.121
30
0
11
-178.923
21
12.264
31
0
0
ARC
8
1
62
1
10
-178.976
20
12.202
30
0
40
0.082
50
-22.140314
51
49.419231
0
LINE
8
1
62
1
10
-178.9
20
12.171
30
0
11
-182.638
21
2.985
31
0
0
LINE
8
1
62
1
10
-182.638
20
2.985
30
0
11
-179.085
21
1.539
31
0
0
LINE
8
1
62
1
10
-179.085
20
1.539
30
0
11
-175.85
21
9.49
31
0
0
ARC
8
1
62
1
10
-175.774
20
9.459
30
0
40
0.082
50
49.419231
51
157.862154
0
LINE
8
1
62
1
10
-175.721
20
9.522
30
0
11
-66.86
21
-83.709
31
0
0
LINE
8
1
62
1
10
-66.86
20
-83.709
30
0
11
187.284
21
-85.224
31
0
0
ARC
8
1
62
1
10
187.284
20
-85.306
30
0
40
0.082
50
-22.140932
51
89.658831
0
LINE
8
1
62
1
10
187.36
20
-85.337
30
0
11
184.225
21
-93.041
31
0
0
LINE
8
1
62
1
10
184.225
20
-93.041
30
0
11
187.778
21
-94.487
31
0
0
LINE
8
1
62
1
10
187.778
20
-94.487
30
0
11
191.516
21
-85.301
31
0
0
ARC
8
1
62
1
10
191.592
20
-85.332
30
0
40
0.082
50
89.658799
51
157.859988
0
LINE
8
1
62
1
10
191.592
20
-85.25
30
0
11
202.363
21
-85.314
31
0
0
ARC
8
1
62
1
10
202.363
20
-85.396
30
0
40
0.082
50
-22.14495
51
89.658831
0
LINE
8
1
62
1
10
202.439
20
-85.427
30
0
11
194.9
21
-103.952
31
0
0
ARC
8
1
62
1
10
194.824
20
-103.921
30
0
40
0.082
50
-90.341169
51
-22.149888
0
LINE
8
1
62
1
10
194.824
20
-104.003
30
0
11
-74.43
21
-102.398
31
0
0
ARC
8
1
62
1
10
-74.429
20
-102.316
30
0
40
0.082
50
-130.577587
51
-90.341201
0
LINE
8
1
62
1
10
-74.483
20
-102.378
30
0
11
-177.778
21
-13.913
31
0
0
LINE
8
1
62
1
10
-177.778
20
-13.913
30
0
11
-184.001
21
-8.583
31
0
0
LINE
8
1
62
1
10
-170.574
20
23.002
30
0
11
-168.288
21
28.62
31
0
0
ARC
8
1
62
1
10
-168.212
20
28.589
30
0
40
0.082
50
49.420098
51
157.851346
0
LINE
8
1
62
1
10
-168.159
20
28.651
30
0
11
-59.299
21
-64.58
31
0
0
LINE
8
1
62
1
10
-59.299
20
-64.58
30
0
11
194.846
21
-66.094
31
0
0
ARC
8
1
62
1
10
194.846
20
-66.176
30
0
40
0.082
50
-22.140932
51
89.658831
0
LINE
8
1
62
1
10
194.922
20
-66.207
30
0
11
191.787
21
-73.912
31
0
0
LINE
8
1
62
1
10
191.787
20
-73.912
30
0
11
195.34
21
-75.357
31
0
0
LINE
8
1
62
1
10
195.34
20
-75.357
30
0
11
199.078
21
-66.171
31
0
0
ARC
8
1
62
1
10
199.154
20
-66.202
30
0
40
0.082
50
89.658799
51
157.859068
0
LINE
8
1
62
1
10
199.154
20
-66.12
30
0
11
209.924
21
-66.184
31
0
0
ARC
8
1
62
1
10
209.924
20
-66.266
30
0
40
0.082
50
-22.140932
51
89.658831
0
LINE
8
1
62
1
10
210
20
-66.297
30
0
11
202.462
21
-84.822
31
0
0
ARC
8
1
62
1
10
202.386
20
-84.791
30
0
40
0.082
50
-90.341169
51
-22.140932
0
LINE
8
1
62
1
10
202.386
20
-84.873
30
0
11
-66.868
21
-83.268
31
0
0
ARC
8
1
62
1
10
-66.868
20
-83.186
30
0
40
0.082
50
-130.581636
51
-90.341201
0
LINE
8
1
62
1
10
-66.921
20
-83.249
30
0
11
-187.012
21
19.601
31
0
0
ARC
8
1
62
1
10
-186.959
20
19.664
30
0
40
0.082
50
157.860303
51
-130.579902
0
LINE
8
1
62
1
10
-187.035
20
19.695
30
0
11
-179.497
21
38.22
31
0
0
ARC
8
1
62
1
10
-179.421
20
38.189
30
0
40
0.082
50
49.420098
51
157.85505
0
LINE
8
1
62
1
10
-179.368
20
38.251
30
0
11
-171.362
21
31.394
31
0
0
ARC
8
1
62
1
10
-171.415
20
31.332
30
0
40
0.082
50
-22.143716
51
49.427329
0
LINE
8
1
62
1
10
-171.339
20
31.301
30
0
11
-175.077
21
22.114
31
0
0
LINE
8
1
62
1
10
-175.077
20
22.114
30
0
11
-171.524
21
20.669
31
0
0
LINE
8
1
62
1
10
-171.524
20
20.669
30
0
11
-170.574
21
23.002
31
0
0
LINE
8
1
62
1
10
-164.299
20
41.967
30
0
11
-161.631
21
48.524
31
0
0
ARC
8
1
62
1
10
-161.555
20
48.493
30
0
40
0.082
50
49.426462
51
157.8566
0
LINE
8
1
62
1
10
-161.502
20
48.556
30
0
11
-52.642
21
-44.675
31
0
0
LINE
8
1
62
1
10
-52.642
20
-44.675
30
0
11
201.503
21
-46.19
31
0
0
ARC
8
1
62
1
10
201.503
20
-46.272
30
0
40
0.082
50
-22.14495
51
89.658815
0
LINE
8
1
62
1
10
201.579
20
-46.303
30
0
11
198.444
21
-54.007
31
0
0
LINE
8
1
62
1
10
198.444
20
-54.007
30
0
11
201.997
21
-55.453
31
0
0
LINE
8
1
62
1
10
201.997
20
-55.453
30
0
11
205.735
21
-46.267
31
0
0
ARC
8
1
62
1
10
205.811
20
-46.298
30
0
40
0.082
50
89.658815
51
157.859068
0
LINE
8
1
62
1
10
205.811
20
-46.216
30
0
11
216.581
21
-46.28
31
0
0
ARC
8
1
62
1
10
216.581
20
-46.362
30
0
40
0.082
50
-22.140932
51
89.658831
0
LINE
8
1
62
1
10
216.657
20
-46.393
30
0
11
209.119
21
-64.918
31
0
0
ARC
8
1
62
1
10
209.043
20
-64.887
30
0
40
0.082
50
-90.341201
51
-22.140932
0
LINE
8
1
62
1
10
209.043
20
-64.969
30
0
11
-60.211
21
-63.364
31
0
0
ARC
8
1
62
1
10
-60.211
20
-63.282
30
0
40
0.082
50
-130.575853
51
-90.341185
0
LINE
8
1
62
1
10
-60.264
20
-63.344
30
0
11
-180.355
21
39.505
31
0
0
ARC
8
1
62
1
10
-180.302
20
39.568
30
0
40
0.082
50
157.852581
51
-130.581636
0
LINE
8
1
62
1
10
-180.378
20
39.599
30
0
11
-172.839
21
58.124
31
0
0
ARC
8
1
62
1
10
-172.763
20
58.093
30
0
40
0.082
50
49.418364
51
157.859068
0
LINE
8
1
62
1
10
-172.71
20
58.155
30
0
11
-164.704
21
51.298
31
0
0
ARC
8
1
62
1
10
-164.757
20
51.236
30
0
40
0.082
50
-22.145869
51
49.420098
0
LINE
8
1
62
1
10
-164.681
20
51.205
30
0
11
-168.42
21
42.019
31
0
0
LINE
8
1
62
1
10
-168.42
20
42.019
30
0
11
-164.867
21
40.573
31
0
0
LINE
8
1
62
1
10
-164.867
20
40.573
30
0
11
-164.299
21
41.967
31
0
0
LINE
8
1
62
1
10
-156.311
20
61.062
30
0
11
-153.743
21
67.374
31
0
0
ARC
8
1
62
1
10
-153.667
20
67.343
30
0
40
0.082
50
49.418364
51
157.859988
0
LINE
8
1
62
1
10
-153.614
20
67.405
30
0
11
-44.753
21
-25.826
31
0
0
LINE
8
1
62
1
10
-44.753
20
-25.826
30
0
11
209.391
21
-27.34
31
0
0
ARC
8
1
62
1
10
209.391
20
-27.422
30
0
40
0.082
50
-22.14495
51
89.658815
0
LINE
8
1
62
1
10
209.467
20
-27.453
30
0
11
206.332
21
-35.158
31
0
0
LINE
8
1
62
1
10
206.332
20
-35.158
30
0
11
209.885
21
-36.604
31
0
0
LINE
8
1
62
1
10
209.885
20
-36.604
30
0
11
213.623
21
-27.417
31
0
0
ARC
8
1
62
1
10
213.699
20
-27.448
30
0
40
0.082
50
89.658823
51
157.859068
0
LINE
8
1
62
1
10
213.699
20
-27.366
30
0
11
224.469
21
-27.43
31
0
0
ARC
8
1
62
1
10
224.469
20
-27.512
30
0
40
0.082
50
-22.140932
51
89.658823
0
LINE
8
1
62
1
10
224.545
20
-27.543
30
0
11
217.007
21
-46.068
31
0
0
ARC
8
1
62
1
10
216.931
20
-46.037
30
0
40
0.082
50
-90.341169
51
-22.140932
0
LINE
8
1
62
1
10
216.931
20
-46.119
30
0
11
-52.323
21
-44.514
31
0
0
ARC
8
1
62
1
10
-52.322
20
-44.432
30
0
40
0.082
50
-130.577878
51
-90.341185
0
LINE
8
1
62
1
10
-52.376
20
-44.495
30
0
11
-172.467
21
58.355
31
0
0
ARC
8
1
62
1
10
-172.414
20
58.417
30
0
40
0.082
50
157.852581
51
-130.581636
0
LINE
8
1
62
1
10
-172.49
20
58.448
30
0
11
-164.951
21
76.973
31
0
0
ARC
8
1
62
1
10
-164.875
20
76.942
30
0
40
0.082
50
49.421832
51
157.854131
0
LINE
8
1
62
1
10
-164.822
20
77.005
30
0
11
-156.816
21
70.148
31
0
0
ARC
8
1
62
1
10
-156.869
20
70.086
30
0
40
0.082
50
-22.140932
51
49.418364
0
LINE
8
1
62
1
10
-156.793
20
70.055
30
0
11
-160.531
21
60.868
31
0
0
LINE
8
1
62
1
10
-160.531
20
60.868
30
0
11
-156.978
21
59.422
31
0
0
LINE
8
1
62
1
10
-156.978
20
59.422
30
0
11
-156.311
21
61.062
31
0
0
LINE
8
1
62
1
10
-149.091
20
80.016
30
0
11
-146.381
21
86.675
31
0
0
ARC
8
1
62
1
10
-146.305
20
86.644
30
0
40
0.082
50
49.42993
51
157.854131
0
LINE
8
1
62
1
10
-146.252
20
86.706
30
0
11
-37.392
21
-6.525
31
0
0
LINE
8
1
62
1
10
-37.392
20
-6.525
30
0
11
216.753
21
-8.039
31
0
0
ARC
8
1
62
1
10
216.753
20
-8.121
30
0
40
0.082
50
-22.14495
51
89.658823
0
LINE
8
1
62
1
10
216.829
20
-8.152
30
0
11
213.694
21
-15.857
31
0
0
LINE
8
1
62
1
10
213.694
20
-15.857
30
0
11
217.247
21
-17.303
31
0
0
LINE
8
1
62
1
10
217.247
20
-17.303
30
0
11
220.985
21
-8.116
31
0
0
ARC
8
1
62
1
10
221.061
20
-8.147
30
0
40
0.082
50
89.658823
51
157.859686
0
LINE
8
1
62
1
10
221.061
20
-8.065
30
0
11
231.831
21
-8.129
31
0
0
ARC
8
1
62
1
10
231.831
20
-8.211
30
0
40
0.082
50
-22.140314
51
89.658823
0
LINE
8
1
62
1
10
231.907
20
-8.242
30
0
11
224.369
21
-26.767
31
0
0
ARC
8
1
62
1
10
224.293
20
-26.736
30
0
40
0.082
50
-90.341177
51
-22.139697
0
LINE
8
1
62
1
10
224.293
20
-26.818
30
0
11
-44.961
21
-25.213
31
0
0
ARC
8
1
62
1
10
-44.961
20
-25.132
30
0
40
0.082
50
-130.578744
51
-90.341177
0
LINE
8
1
62
1
10
-45.014
20
-25.194
30
0
11
-165.105
21
77.656
31
0
0
ARC
8
1
62
1
10
-165.052
20
77.718
30
0
40
0.082
50
157.859068
51
-130.581636
0
LINE
8
1
62
1
10
-165.128
20
77.749
30
0
11
-157.59
21
96.274
31
0
0
ARC
8
1
62
1
10
-157.514
20
96.243
30
0
40
0.082
50
49.418364
51
157.85505
0
LINE
8
1
62
1
10
-157.461
20
96.306
30
0
11
-149.455
21
89.449
31
0
0
ARC
8
1
62
1
10
-149.508
20
89.387
30
0
40
0.082
50
-22.14495
51
49.426462
0
LINE
8
1
62
1
10
-149.432
20
89.356
30
0
11
-153.17
21
80.169
31
0
0
LINE
8
1
62
1
10
-153.17
20
80.169
30
0
11
-149.617
21
78.723
31
0
0
LINE
8
1
62
1
10
-149.617
20
78.723
30
0
11
-149.091
21
80.016
31
0
0
LINE
8
1
62
1
10
-141.163
20
99.248
30
0
11
-138.552
21
105.662
31
0
0
ARC
8
1
62
1
10
-138.476
20
105.631
30
0
40
0.082
50
49.421832
51
157.854131
0
LINE
8
1
62
1
10
-138.423
20
105.693
30
0
11
-29.563
21
12.463
31
0
0
LINE
8
1
62
1
10
-29.563
20
12.463
30
0
11
224.582
21
10.948
31
0
0
ARC
8
1
62
1
10
224.582
20
10.866
30
0
40
0.082
50
-22.140932
51
89.658819
0
LINE
8
1
62
1
10
224.658
20
10.835
30
0
11
221.523
21
3.131
31
0
0
LINE
8
1
62
1
10
221.523
20
3.131
30
0
11
225.076
21
1.685
31
0
0
LINE
8
1
62
1
10
225.076
20
1.685
30
0
11
228.814
21
10.871
31
0
0
ARC
8
1
62
1
10
228.89
20
10.84
30
0
40
0.082
50
89.658823
51
157.859068
0
LINE
8
1
62
1
10
228.89
20
10.922
30
0
11
238.659
21
10.864
31
0
0
LINE
8
1
62
1
10
238.659
20
10.864
30
0
11
239.66
21
10.858
31
0
0
ARC
8
1
62
1
10
239.66
20
10.776
30
0
40
0.082
50
-22.14495
51
89.658819
0
LINE
8
1
62
1
10
239.736
20
10.745
30
0
11
232.198
21
-7.78
31
0
0
ARC
8
1
62
1
10
232.122
20
-7.749
30
0
40
0.082
50
-90.341179
51
-22.140314
0
LINE
8
1
62
1
10
232.122
20
-7.831
30
0
11
-37.132
21
-6.226
31
0
0
ARC
8
1
62
1
10
-37.132
20
-6.144
30
0
40
0.082
50
-130.57672
51
-90.341179
0
LINE
8
1
62
1
10
-37.185
20
-6.206
30
0
11
-157.276
21
96.644
31
0
0
ARC
8
1
62
1
10
-157.223
20
96.706
30
0
40
0.082
50
157.859988
51
-130.57007
0
LINE
8
1
62
1
10
-157.299
20
96.737
30
0
11
-149.761
21
115.262
31
0
0
ARC
8
1
62
1
10
-149.685
20
115.231
30
0
40
0.082
50
49.418364
51
157.864006
0
LINE
8
1
62
1
10
-149.632
20
115.293
30
0
11
-141.626
21
108.436
31
0
0
ARC
8
1
62
1
10
-141.679
20
108.374
30
0
40
0.082
50
-22.140932
51
49.418364
0
LINE
8
1
62
1
10
-141.603
20
108.343
30
0
11
-145.341
21
99.157
31
0
0
LINE
8
1
62
1
10
-145.341
20
99.157
30
0
11
-141.788
21
97.711
31
0
0
LINE
8
1
62
1
10
-141.788
20
97.711
30
0
11
-141.163
21
99.248
31
0
0
LINE
8
1
62
1
10
-84.028
20
84.713
30
0
11
-23.017
21
32.462
31
0
0
LINE
8
1
62
1
10
-23.017
20
32.462
30
0
11
231.127
21
30.948
31
0
0
ARC
8
1
62
1
10
231.127
20
30.866
30
0
40
0.082
50
-22.140932
51
89.658823
0
LINE
8
1
62
1
10
231.203
20
30.835
30
0
11
228.068
21
23.13
31
0
0
LINE
8
1
62
1
10
228.068
20
23.13
30
0
11
231.621
21
21.684
31
0
0
LINE
8
1
62
1
10
231.621
20
21.684
30
0
11
235.359
21
30.871
31
0
0
ARC
8
1
62
1
10
235.435
20
30.84
30
0
40
0.082
50
89.658823
51
157.85505
0
LINE
8
1
62
1
10
235.435
20
30.922
30
0
11
246.206
21
30.858
31
0
0
ARC
8
1
62
1
10
246.206
20
30.776
30
0
40
0.082
50
-22.142166
51
89.658823
0
LINE
8
1
62
1
10
246.282
20
30.745
30
0
11
238.743
21
12.22
31
0
0
ARC
8
1
62
1
10
238.667
20
12.251
30
0
40
0.082
50
-90.351839
51
-22.146802
0
LINE
8
1
62
1
10
238.667
20
12.169
30
0
11
-30.587
21
13.774
31
0
0
ARC
8
1
62
1
10
-30.586
20
13.856
30
0
40
0.082
50
-130.577299
51
-90.341177
0
LINE
8
1
62
1
10
-30.64
20
13.793
30
0
11
-150.73
21
116.643
31
0
0
ARC
8
1
62
1
10
-150.677
20
116.705
30
0
40
0.082
50
157.859068
51
-130.578168
0
LINE
8
1
62
1
10
-150.753
20
116.736
30
0
11
-143.215
21
135.261
31
0
0
ARC
8
1
62
1
10
-143.139
20
135.23
30
0
40
0.082
50
49.421832
51
157.850112
0
LINE
8
1
62
1
10
-143.086
20
135.292
30
0
11
-135.08
21
128.436
31
0
0
ARC
8
1
62
1
10
-135.133
20
128.374
30
0
40
0.082
50
-22.140012
51
49.42993
0
LINE
8
1
62
1
10
-135.057
20
128.343
30
0
11
-138.795
21
119.156
31
0
0
LINE
8
1
62
1
10
-138.795
20
119.156
30
0
11
-135.242
21
117.711
31
0
0
LINE
8
1
62
1
10
-135.242
20
117.711
30
0
11
-132.007
21
125.662
31
0
0
ARC
8
1
62
1
10
-131.931
20
125.631
30
0
40
0.082
50
49.421832
51
157.859068
0
LINE
8
1
62
1
10
-131.878
20
125.693
30
0
11
-84.028
21
84.713
31
0
0
ARC
8
1
62
1
10
20.133
20
138.895
30
0
40
23.668
50
-109.796389
51
70.203611
0
ARC
8
1
62
1
10
20.133
20
138.895
30
0
40
23.668
50
70.203611
51
-109.796389
0
LINE
8
1
62
1
10
29.041
20
91.248
30
0
11
29.38
21
89.76
31
0
0
ARC
8
1
62
1
10
29.301
20
89.742
30
0
40
0.082
50
-79.436014
51
12.854065
0
ARC
8
1
62
1
10
20.133
20
138.895
30
0
40
50.082
50
-100.564579
51
-79.435419
0
ARC
8
1
62
1
10
10.966
20
89.742
30
0
40
0.082
50
167.146083
51
-100.563986
0
LINE
8
1
62
1
10
10.886
20
89.76
30
0
11
13.093
21
99.43
31
0
0
LINE
8
1
62
1
10
13.093
20
99.43
30
0
11
9.353
21
100.284
31
0
0
LINE
8
1
62
1
10
9.353
20
100.284
30
0
11
7.146
21
90.614
31
0
0
ARC
8
1
62
1
10
7.066
20
90.632
30
0
40
0.082
50
-105.148494
51
-12.858966
0
ARC
8
1
62
1
10
20.133
20
138.895
30
0
40
50.082
50
-126.278702
51
-105.149487
0
ARC
8
1
62
1
10
-9.453
20
98.587
30
0
40
0.082
50
141.430106
51
-126.276585
0
LINE
8
1
62
1
10
-9.517
20
98.638
30
0
11
-3.333
21
106.393
31
0
0
LINE
8
1
62
1
10
-3.333
20
106.393
30
0
11
-6.332
21
108.785
31
0
0
LINE
8
1
62
1
10
-6.332
20
108.785
30
0
11
-12.516
21
101.03
31
0
0
ARC
8
1
62
1
10
-12.58
20
101.081
30
0
40
0.082
50
-130.86547
51
-38.569894
0
ARC
8
1
62
1
10
20.134
20
138.894
30
0
40
50.082
50
-151.994332
51
-130.864668
0
ARC
8
1
62
1
10
-24.011
20
115.416
30
0
40
0.082
50
115.716269
51
-151.993051
0
LINE
8
1
62
1
10
-24.047
20
115.49
30
0
11
-15.111
21
119.793
31
0
0
LINE
8
1
62
1
10
-15.111
20
119.793
30
0
11
-16.776
21
123.25
31
0
0
LINE
8
1
62
1
10
-16.776
20
123.25
30
0
11
-25.711
21
118.946
31
0
0
ARC
8
1
62
1
10
-25.747
20
119.02
30
0
40
0.082
50
-156.579337
51
-64.283731
0
ARC
8
1
62
1
10
20.133
20
138.895
30
0
40
50.082
50
-177.707799
51
-156.578251
0
ARC
8
1
62
1
10
-29.827
20
136.895
30
0
40
0.082
50
90
51
-177.7071
0
LINE
8
1
62
1
10
-29.827
20
136.977
30
0
11
-19.909
21
136.977
31
0
0
LINE
8
1
62
1
10
-19.909
20
136.977
30
0
11
-19.909
21
140.813
31
0
0
LINE
8
1
62
1
10
-19.909
20
140.813
30
0
11
-29.827
21
140.813
31
0
0
ARC
8
1
62
1
10
-29.827
20
140.895
30
0
40
0.082
50
177.7071
51
-90
0
ARC
8
1
62
1
10
20.133
20
138.894
30
0
40
50.082
50
156.578086
51
177.706567
0
ARC
8
1
62
1
10
-25.747
20
158.769
30
0
40
0.082
50
64.289646
51
156.579337
0
LINE
8
1
62
1
10
-25.711
20
158.843
30
0
11
-16.776
21
154.54
31
0
0
LINE
8
1
62
1
10
-16.776
20
154.54
30
0
11
-15.111
21
157.997
31
0
0
LINE
8
1
62
1
10
-15.111
20
157.997
30
0
11
-24.047
21
162.299
31
0
0
ARC
8
1
62
1
10
-24.011
20
162.373
30
0
40
0.082
50
151.997758
51
-115.709153
0
ARC
8
1
62
1
10
20.133
20
138.895
30
0
40
50.082
50
130.864537
51
151.994478
0
ARC
8
1
62
1
10
-12.58
20
176.708
30
0
40
0.082
50
38.575308
51
130.858495
0
LINE
8
1
62
1
10
-12.516
20
176.759
30
0
11
-6.332
21
169.005
31
0
0
LINE
8
1
62
1
10
-6.332
20
169.005
30
0
11
-3.333
21
171.397
31
0
0
LINE
8
1
62
1
10
-3.333
20
171.397
30
0
11
-9.517
21
179.151
31
0
0
ARC
8
1
62
1
10
-9.453
20
179.202
30
0
40
0.082
50
126.280276
51
-141.433028
0
ARC
8
1
62
1
10
20.133
20
138.895
30
0
40
50.082
50
105.149354
51
126.278834
0
ARC
8
1
62
1
10
7.066
20
187.157
30
0
40
0.082
50
12.85904
51
105.149887
0
LINE
8
1
62
1
10
7.146
20
187.175
30
0
11
9.353
21
177.506
31
0
0
LINE
8
1
62
1
10
9.353
20
177.506
30
0
11
13.093
21
178.36
31
0
0
LINE
8
1
62
1
10
13.093
20
178.36
30
0
11
10.886
21
188.029
31
0
0
ARC
8
1
62
1
10
10.966
20
188.047
30
0
40
0.082
50
100.563986
51
-167.140886
0
ARC
8
1
62
1
10
20.133
20
138.895
30
0
40
50.082
50
79.43525
51
100.564748
0
ARC
8
1
62
1
10
29.301
20
188.047
30
0
40
0.082
50
-12.859262
51
79.436014
0
LINE
8
1
62
1
10
29.38
20
188.029
30
0
11
27.173
21
178.36
31
0
0
LINE
8
1
62
1
10
27.173
20
178.36
30
0
11
30.913
21
177.506
31
0
0
LINE
8
1
62
1
10
30.913
20
177.506
30
0
11
33.12
21
187.175
31
0
0
ARC
8
1
62
1
10
33.2
20
187.157
30
0
40
0.082
50
74.849148
51
167.141034
0
ARC
8
1
62
1
10
20.134
20
138.895
30
0
40
50.082
50
53.721193
51
74.850694
0
ARC
8
1
62
1
10
49.719
20
179.202
30
0
40
0.082
50
-38.566556
51
53.720798
0
LINE
8
1
62
1
10
49.783
20
179.151
30
0
11
43.599
21
171.397
31
0
0
LINE
8
1
62
1
10
43.599
20
171.397
30
0
11
46.599
21
169.005
31
0
0
LINE
8
1
62
1
10
46.599
20
169.005
30
0
11
52.782
21
176.759
31
0
0
ARC
8
1
62
1
10
52.846
20
176.708
30
0
40
0.082
50
49.142009
51
141.425108
0
ARC
8
1
62
1
10
20.133
20
138.895
30
0
40
50.082
50
28.00575
51
49.135741
0
ARC
8
1
62
1
10
64.278
20
162.373
30
0
40
0.082
50
-64.288445
51
28.002868
0
LINE
8
1
62
1
10
64.313
20
162.299
30
0
11
55.378
21
157.997
31
0
0
LINE
8
1
62
1
10
55.378
20
157.997
30
0
11
57.042
21
154.54
31
0
0
LINE
8
1
62
1
10
57.042
20
154.54
30
0
11
65.978
21
158.843
31
0
0
ARC
8
1
62
1
10
66.013
20
158.769
30
0
40
0.082
50
23.419074
51
115.706752
0
ARC
8
1
62
1
10
20.133
20
138.894
30
0
40
50.082
50
2.293464
51
23.421902
0
ARC
8
1
62
1
10
70.093
20
140.895
30
0
40
0.082
50
-90
51
2.292954
0
LINE
8
1
62
1
10
70.093
20
140.813
30
0
11
60.175
21
140.813
31
0
0
LINE
8
1
62
1
10
60.175
20
140.813
30
0
11
60.175
21
136.977
31
0
0
LINE
8
1
62
1
10
60.175
20
136.977
30
0
11
70.093
21
136.977
31
0
0
ARC
8
1
62
1
10
70.093
20
136.895
30
0
40
0.082
50
-2.292954
51
90
0
ARC
8
1
62
1
10
20.133
20
138.895
30
0
40
50.082
50
-23.421737
51
-2.292232
0
ARC
8
1
62
1
10
66.013
20
119.02
30
0
40
0.082
50
-115.713868
51
-23.419074
0
LINE
8
1
62
1
10
65.978
20
118.946
30
0
11
57.042
21
123.25
31
0
0
LINE
8
1
62
1
10
57.042
20
123.25
30
0
11
55.378
21
119.793
31
0
0
LINE
8
1
62
1
10
55.378
20
119.793
30
0
11
64.313
21
115.49
31
0
0
ARC
8
1
62
1
10
64.278
20
115.416
30
0
40
0.082
50
-28.007574
51
64.286132
0
ARC
8
1
62
1
10
20.133
20
138.894
30
0
40
50.082
50
-49.135598
51
-28.00588
0
ARC
8
1
62
1
10
52.846
20
101.081
30
0
40
0.082
50
-141.430937
51
-49.135034
0
LINE
8
1
62
1
10
52.782
20
101.03
30
0
11
46.599
21
108.785
31
0
0
LINE
8
1
62
1
10
46.599
20
108.785
30
0
11
43.599
21
106.393
31
0
0
LINE
8
1
62
1
10
43.599
20
106.393
30
0
11
49.783
21
98.638
31
0
0
ARC
8
1
62
1
10
49.719
20
98.587
30
0
40
0.082
50
-53.723952
51
38.570725
0
ARC
8
1
62
1
10
20.133
20
138.895
30
0
40
50.082
50
-74.850566
51
-53.721334
0
ARC
8
1
62
1
10
33.2
20
90.632
30
0
40
0.082
50
-167.141034
51
-74.850541
0
LINE
8
1
62
1
10
33.12
20
90.614
30
0
11
30.913
21
100.284
31
0
0
LINE
8
1
62
1
10
30.913
20
100.284
30
0
11
27.173
21
99.43
31
0
0
LINE
8
1
62
1
10
27.173
20
99.43
30
0
11
29.041
21
91.248
31
0
0
ARC
8
1
62
1
10
19.447
20
138.895
30
0
40
79.918
50
-69.652015
51
0.000033
0
ARC
8
1
62
1
10
19.447
20
138.895
30
0
40
79.918
50
0
51
180
0
ARC
8
1
62
1
10
19.447
20
138.895
30
0
40
79.918
50
180
51
-90
0
ARC
8
1
62
1
10
19.447
20
138.895
30
0
40
79.918
50
-90.000242
51
-78.62
0
ARC
8
1
62
1
10
19.447
20
138.895
30
0
40
79.918
50
-78.619728
51
-69.652015
0
ARC
8
1
62
1
10
19.447
20
138.895
30
0
40
100.082
50
-75.996855
51
-66.926863
0
ARC
8
1
62
1
10
43.644
20
41.866
30
0
40
0.082
50
-167.141034
51
-75.998019
0
LINE
8
1
62
1
10
43.564
20
41.848
30
0
11
41.357
21
51.517
31
0
0
LINE
8
1
62
1
10
41.357
20
51.517
30
0
11
37.617
21
50.664
31
0
0
LINE
8
1
62
1
10
37.617
20
50.664
30
0
11
39.824
21
40.995
31
0
0
ARC
8
1
62
1
10
39.744
20
40.976
30
0
40
0.082
50
-78.289119
51
12.856367
0
ARC
8
1
62
1
10
19.447
20
138.895
30
0
40
100.082
50
-101.711094
51
-78.288907
0
ARC
8
1
62
1
10
-0.851
20
40.976
30
0
40
0.082
50
167.143549
51
-101.711289
0
LINE
8
1
62
1
10
-0.931
20
40.995
30
0
11
1.276
21
50.664
31
0
0
LINE
8
1
62
1
10
1.276
20
50.664
30
0
11
-2.464
21
51.517
31
0
0
LINE
8
1
62
1
10
-2.464
20
51.517
30
0
11
-4.671
21
41.848
31
0
0
ARC
8
1
62
1
10
-4.751
20
41.866
30
0
40
0.082
50
-104.003274
51
-12.85904
0
ARC
8
1
62
1
10
19.447
20
138.895
30
0
40
100.082
50
-127.425309
51
-104.003099
0
ARC
8
1
62
1
10
-41.326
20
59.48
30
0
40
0.082
50
141.427191
51
-127.42541
0
LINE
8
1
62
1
10
-41.39
20
59.531
30
0
11
-35.207
21
67.285
31
0
0
LINE
8
1
62
1
10
-35.207
20
67.285
30
0
11
-38.206
21
69.677
31
0
0
LINE
8
1
62
1
10
-38.206
20
69.677
30
0
11
-44.389
21
61.923
31
0
0
ARC
8
1
62
1
10
-44.454
20
61.974
30
0
40
0.082
50
-129.716835
51
-38.569063
0
ARC
8
1
62
1
10
19.447
20
138.895
30
0
40
100.082
50
-153.139718
51
-129.717481
0
ARC
8
1
62
1
10
-69.765
20
93.713
30
0
40
0.082
50
115.711555
51
-153.139317
0
LINE
8
1
62
1
10
-69.8
20
93.787
30
0
11
-60.864
21
98.09
31
0
0
LINE
8
1
62
1
10
-60.864
20
98.09
30
0
11
-62.529
21
101.547
31
0
0
LINE
8
1
62
1
10
-62.529
20
101.547
30
0
11
-71.465
21
97.243
31
0
0
ARC
8
1
62
1
10
-71.5
20
97.317
30
0
40
0.082
50
-155.430751
51
-64.283642
0
ARC
8
1
62
1
10
19.447
20
138.894
30
0
40
100.082
50
-178.854337
51
-155.431824
0
ARC
8
1
62
1
10
-80.533
20
136.895
30
0
40
0.082
50
90
51
-178.848481
0
LINE
8
1
62
1
10
-80.533
20
136.977
30
0
11
-70.615
21
136.977
31
0
0
LINE
8
1
62
1
10
-70.615
20
136.977
30
0
11
-70.615
21
140.813
31
0
0
LINE
8
1
62
1
10
-70.615
20
140.813
30
0
11
-80.533
21
140.813
31
0
0
ARC
8
1
62
1
10
-80.533
20
140.895
30
0
40
0.082
50
178.85914
51
-90
0
ARC
8
1
62
1
10
19.446
20
138.894
30
0
40
100.082
50
155.431762
51
178.853653
0
ARC
8
1
62
1
10
-71.5
20
180.472
30
0
40
0.082
50
64.293248
51
155.435599
0
LINE
8
1
62
1
10
-71.465
20
180.546
30
0
11
-62.529
21
176.243
31
0
0
LINE
8
1
62
1
10
-62.529
20
176.243
30
0
11
-60.864
21
179.699
31
0
0
LINE
8
1
62
1
10
-60.864
20
179.699
30
0
11
-69.8
21
184.002
31
0
0
ARC
8
1
62
1
10
-69.765
20
184.076
30
0
40
0.082
50
153.139317
51
-115.711555
0
ARC
8
1
62
1
10
19.446
20
138.895
30
0
40
100.082
50
129.717476
51
153.139896
0
ARC
8
1
62
1
10
-44.454
20
215.815
30
0
40
0.082
50
38.574892
51
129.713429
0
LINE
8
1
62
1
10
-44.389
20
215.866
30
0
11
-38.206
21
208.112
31
0
0
LINE
8
1
62
1
10
-38.206
20
208.112
30
0
11
-35.207
21
210.504
31
0
0
LINE
8
1
62
1
10
-35.207
20
210.504
30
0
11
-41.39
21
218.258
31
0
0
ARC
8
1
62
1
10
-41.326
20
218.309
30
0
40
0.082
50
127.42865
51
-141.423446
0
ARC
8
1
62
1
10
19.447
20
138.895
30
0
40
100.082
50
104.003364
51
127.425802
0
ARC
8
1
62
1
10
-4.751
20
235.923
30
0
40
0.082
50
12.859114
51
104.004242
0
LINE
8
1
62
1
10
-4.671
20
235.941
30
0
11
-2.464
21
226.272
31
0
0
LINE
8
1
62
1
10
-2.464
20
226.272
30
0
11
1.276
21
227.126
31
0
0
LINE
8
1
62
1
10
1.276
20
227.126
30
0
11
-0.931
21
236.795
31
0
0
ARC
8
1
62
1
10
-0.851
20
236.813
30
0
40
0.082
50
101.71137
51
-167.140932
0
ARC
8
1
62
1
10
19.447
20
138.895
30
0
40
100.082
50
78.288825
51
101.711176
0
ARC
8
1
62
1
10
39.744
20
236.813
30
0
40
0.082
50
-12.858966
51
78.289119
0
LINE
8
1
62
1
10
39.824
20
236.795
30
0
11
37.617
21
227.126
31
0
0
LINE
8
1
62
1
10
37.617
20
227.126
30
0
11
41.357
21
226.272
31
0
0
LINE
8
1
62
1
10
41.357
20
226.272
30
0
11
43.564
21
235.941
31
0
0
ARC
8
1
62
1
10
43.644
20
235.923
30
0
40
0.082
50
75.997374
51
167.141034
0
ARC
8
1
62
1
10
19.446
20
138.895
30
0
40
100.082
50
52.574169
51
75.996587
0
ARC
8
1
62
1
10
80.219
20
218.309
30
0
40
0.082
50
-38.574892
51
52.569233
0
LINE
8
1
62
1
10
80.284
20
218.258
30
0
11
74.1
21
210.504
31
0
0
LINE
8
1
62
1
10
74.1
20
210.504
30
0
11
77.099
21
208.112
31
0
0
LINE
8
1
62
1
10
77.099
20
208.112
30
0
11
83.283
21
215.866
31
0
0
ARC
8
1
62
1
10
83.347
20
215.815
30
0
40
0.082
50
50.284521
51
141.425108
0
ARC
8
1
62
1
10
19.447
20
138.894
30
0
40
100.082
50
26.860478
51
50.28302
0
ARC
8
1
62
1
10
108.658
20
184.076
30
0
40
0.082
50
-64.283642
51
26.858274
0
LINE
8
1
62
1
10
108.694
20
184.002
30
0
11
99.757
21
179.699
31
0
0
LINE
8
1
62
1
10
99.757
20
179.699
30
0
11
101.422
21
176.243
31
0
0
LINE
8
1
62
1
10
101.422
20
176.243
30
0
11
110.357
21
180.546
31
0
0
ARC
8
1
62
1
10
110.393
20
180.472
30
0
40
0.082
50
24.564401
51
115.711555
0
ARC
8
1
62
1
10
19.447
20
138.893
30
0
40
100.082
50
1.147264
51
24.569231
0
ARC
8
1
62
1
10
119.427
20
140.895
30
0
40
0.082
50
-90
51
1.140966
0
LINE
8
1
62
1
10
119.427
20
140.813
30
0
11
109.509
21
140.813
31
0
0
LINE
8
1
62
1
10
109.509
20
140.813
30
0
11
109.509
21
136.977
31
0
0
LINE
8
1
62
1
10
109.509
20
136.977
30
0
11
119.427
21
136.977
31
0
0
ARC
8
1
62
1
10
119.427
20
136.895
30
0
40
0.082
50
-1.151626
51
90
0
ARC
8
1
62
1
10
19.447
20
138.896
30
0
40
100.082
50
-24.56917
51
-1.14658
0
ARC
8
1
62
1
10
110.393
20
97.317
30
0
40
0.082
50
-115.716358
51
-24.569249
0
LINE
8
1
62
1
10
110.357
20
97.243
30
0
11
101.422
21
101.547
31
0
0
LINE
8
1
62
1
10
101.422
20
101.547
30
0
11
99.757
21
98.09
31
0
0
LINE
8
1
62
1
10
99.757
20
98.09
30
0
11
108.694
21
93.787
31
0
0
ARC
8
1
62
1
10
108.658
20
93.713
30
0
40
0.082
50
-26.858274
51
64.283642
0
ARC
8
1
62
1
10
19.447
20
138.895
30
0
40
100.082
50
-50.283019
51
-26.860663
0
ARC
8
1
62
1
10
83.347
20
61.974
30
0
40
0.082
50
-141.429275
51
-50.281114
0
LINE
8
1
62
1
10
83.283
20
61.923
30
0
11
77.099
21
69.677
31
0
0
LINE
8
1
62
1
10
77.099
20
69.677
30
0
11
74.1
21
67.285
31
0
0
LINE
8
1
62
1
10
74.1
20
67.285
30
0
11
80.284
21
59.531
31
0
0
ARC
8
1
62
1
10
80.219
20
59.48
30
0
40
0.082
50
-52.572473
51
38.572809
0
ARC
8
1
62
1
10
19.447
20
138.895
30
0
40
100.082
50
-66.926863
51
-52.574669
0
LINE
8
1
62
1
10
150.313
20
-221.482
30
0
11
143.215
21
-238.926
31
0
0
ARC
8
1
62
1
10
143.139
20
-238.895
30
0
40
0.082
50
-90.35183
51
-22.140012
0
LINE
8
1
62
1
10
143.139
20
-238.977
30
0
11
-126.114
21
-237.372
31
0
0
ARC
8
1
62
1
10
-126.114
20
-237.29
30
0
40
0.082
50
-130.574119
51
-90.341169
0
LINE
8
1
62
1
10
-126.167
20
-237.352
30
0
11
-243.141
21
-137.173
31
0
0
LINE
8
1
62
1
10
-243.141
20
-137.173
30
0
11
-246.259
21
-134.502
31
0
0
ARC
8
1
62
1
10
-246.206
20
-134.44
30
0
40
0.082
50
157.854131
51
-130.585104
0
LINE
8
1
62
1
10
-246.282
20
-134.409
30
0
11
-238.743
21
-115.884
31
0
0
ARC
8
1
62
1
10
-238.667
20
-115.915
30
0
40
0.082
50
49.418364
51
157.85505
0
LINE
8
1
62
1
10
-238.614
20
-115.853
30
0
11
-230.608
21
-122.71
31
0
0
ARC
8
1
62
1
10
-230.661
20
-122.772
30
0
40
0.082
50
-22.14495
51
49.426462
0
LINE
8
1
62
1
10
-230.585
20
-122.803
30
0
11
-234.323
21
-131.989
31
0
0
LINE
8
1
62
1
10
-234.323
20
-131.989
30
0
11
-230.77
21
-133.435
31
0
0
LINE
8
1
62
1
10
-230.77
20
-133.435
30
0
11
-227.535
21
-125.483
31
0
0
ARC
8
1
62
1
10
-227.459
20
-125.514
30
0
40
0.082
50
49.418364
51
157.864006
0
LINE
8
1
62
1
10
-227.406
20
-125.452
30
0
11
-118.545
21
-218.683
31
0
0
LINE
8
1
62
1
10
-118.545
20
-218.683
30
0
11
135.599
21
-220.198
31
0
0
ARC
8
1
62
1
10
135.599
20
-220.28
30
0
40
0.082
50
-22.145869
51
89.658831
0
LINE
8
1
62
1
10
135.675
20
-220.311
30
0
11
132.54
21
-228.015
31
0
0
LINE
8
1
62
1
10
132.54
20
-228.015
30
0
11
136.093
21
-229.461
31
0
0
LINE
8
1
62
1
10
136.093
20
-229.461
30
0
11
139.831
21
-220.274
31
0
0
ARC
8
1
62
1
10
139.907
20
-220.305
30
0
40
0.082
50
89.648104
51
157.864006
0
LINE
8
1
62
1
10
139.908
20
-220.223
30
0
11
147.907
21
-220.271
31
0
0
LINE
8
1
62
1
10
147.907
20
-220.271
30
0
11
150.677
21
-220.288
31
0
0
ARC
8
1
62
1
10
150.677
20
-220.37
30
0
40
0.082
50
-22.145869
51
89.658831
0
LINE
8
1
62
1
10
150.753
20
-220.401
30
0
11
150.313
21
-221.482
31
0
0
ENDSEC
0
EOF
